<mxfile host="app.diagrams.net" agent="Mozilla/5.0 (Windows NT 10.0; Win64; x64) AppleWebKit/537.36 (KHTML, like Gecko) Chrome/132.0.0.0 Safari/537.36 Edg/132.0.0.0" version="26.0.11">
  <diagram name="Page-1" id="dHEjQKyAx2glMH0PPZ7r">
    <mxGraphModel dx="1722" dy="923" grid="1" gridSize="10" guides="1" tooltips="1" connect="1" arrows="1" fold="1" page="1" pageScale="1" pageWidth="2000" pageHeight="2000" math="1" shadow="0">
      <root>
        <mxCell id="0" />
        <mxCell id="1" parent="0" />
        <mxCell id="L2Xz_SyH8n0p4nSWYo8K-233" value="&lt;font style=&quot;color: rgb(255, 255, 255);&quot;&gt;PINN&lt;/font&gt;" style="rounded=1;whiteSpace=wrap;html=1;strokeWidth=2;fillColor=#000000;" parent="1" vertex="1">
          <mxGeometry x="410" y="452.5" width="175" height="87.5" as="geometry" />
        </mxCell>
        <mxCell id="L2Xz_SyH8n0p4nSWYo8K-241" value="`\tilde{v}(t_n)`" style="text;html=1;align=center;verticalAlign=middle;whiteSpace=wrap;rounded=0;" parent="1" vertex="1">
          <mxGeometry x="680" y="518.38" width="50" height="30" as="geometry" />
        </mxCell>
        <mxCell id="L2Xz_SyH8n0p4nSWYo8K-247" value="" style="endArrow=classic;html=1;rounded=0;exitX=1;exitY=0.75;exitDx=0;exitDy=0;entryX=0;entryY=0.5;entryDx=0;entryDy=0;" parent="1" source="L2Xz_SyH8n0p4nSWYo8K-233" target="yh-87h6LT-zxQJzMNpkT-10" edge="1">
          <mxGeometry width="50" height="50" relative="1" as="geometry">
            <mxPoint x="840" y="700.25" as="sourcePoint" />
            <mxPoint x="910" y="560" as="targetPoint" />
          </mxGeometry>
        </mxCell>
        <mxCell id="L2Xz_SyH8n0p4nSWYo8K-248" value="" style="endArrow=classic;html=1;rounded=0;entryX=0;entryY=0.5;entryDx=0;entryDy=0;exitX=1;exitY=0.75;exitDx=0;exitDy=0;" parent="1" source="L2Xz_SyH8n0p4nSWYo8K-233" target="L2Xz_SyH8n0p4nSWYo8K-241" edge="1">
          <mxGeometry width="50" height="50" relative="1" as="geometry">
            <mxPoint x="950" y="510.25" as="sourcePoint" />
            <mxPoint x="945" y="730.25" as="targetPoint" />
          </mxGeometry>
        </mxCell>
        <mxCell id="L2Xz_SyH8n0p4nSWYo8K-249" value="" style="endArrow=classic;html=1;rounded=0;exitX=1;exitY=0.75;exitDx=0;exitDy=0;entryX=0;entryY=0.5;entryDx=0;entryDy=0;" parent="1" source="L2Xz_SyH8n0p4nSWYo8K-233" target="yh-87h6LT-zxQJzMNpkT-12" edge="1">
          <mxGeometry width="50" height="50" relative="1" as="geometry">
            <mxPoint x="880" y="595.25" as="sourcePoint" />
            <mxPoint x="840" y="660" as="targetPoint" />
          </mxGeometry>
        </mxCell>
        <mxCell id="L2Xz_SyH8n0p4nSWYo8K-256" value="Multistep Integrator" style="rounded=1;whiteSpace=wrap;html=1;" parent="1" vertex="1">
          <mxGeometry x="850" y="448.46999999999997" width="180" height="93" as="geometry" />
        </mxCell>
        <mxCell id="L2Xz_SyH8n0p4nSWYo8K-257" value="" style="endArrow=classic;html=1;rounded=0;exitX=1;exitY=0.5;exitDx=0;exitDy=0;entryX=0;entryY=0.5;entryDx=0;entryDy=0;" parent="1" source="yh-87h6LT-zxQJzMNpkT-10" target="L2Xz_SyH8n0p4nSWYo8K-256" edge="1">
          <mxGeometry width="50" height="50" relative="1" as="geometry">
            <mxPoint x="830" y="613.3800000000001" as="sourcePoint" />
            <mxPoint x="910" y="454.22" as="targetPoint" />
          </mxGeometry>
        </mxCell>
        <mxCell id="L2Xz_SyH8n0p4nSWYo8K-258" value="" style="endArrow=classic;html=1;rounded=0;exitX=1;exitY=0.5;exitDx=0;exitDy=0;entryX=0;entryY=0.5;entryDx=0;entryDy=0;" parent="1" source="L2Xz_SyH8n0p4nSWYo8K-241" target="L2Xz_SyH8n0p4nSWYo8K-256" edge="1">
          <mxGeometry width="50" height="50" relative="1" as="geometry">
            <mxPoint x="860" y="524.22" as="sourcePoint" />
            <mxPoint x="910" y="474.22" as="targetPoint" />
          </mxGeometry>
        </mxCell>
        <mxCell id="L2Xz_SyH8n0p4nSWYo8K-259" value="" style="endArrow=classic;html=1;rounded=0;exitX=1;exitY=0.5;exitDx=0;exitDy=0;entryX=0;entryY=0.5;entryDx=0;entryDy=0;" parent="1" source="yh-87h6LT-zxQJzMNpkT-12" target="L2Xz_SyH8n0p4nSWYo8K-256" edge="1">
          <mxGeometry width="50" height="50" relative="1" as="geometry">
            <mxPoint x="830" y="673.3800000000001" as="sourcePoint" />
            <mxPoint x="890" y="531.5" as="targetPoint" />
          </mxGeometry>
        </mxCell>
        <mxCell id="L2Xz_SyH8n0p4nSWYo8K-262" value="`\tilde{u}(t_{n + 1})`" style="text;html=1;align=center;verticalAlign=middle;whiteSpace=wrap;rounded=0;" parent="1" vertex="1">
          <mxGeometry x="1080" y="502.8800000000001" width="60" height="30" as="geometry" />
        </mxCell>
        <mxCell id="L2Xz_SyH8n0p4nSWYo8K-263" value="" style="endArrow=classic;html=1;rounded=0;exitX=1;exitY=0.75;exitDx=0;exitDy=0;entryX=0;entryY=0.5;entryDx=0;entryDy=0;" parent="1" source="L2Xz_SyH8n0p4nSWYo8K-256" target="L2Xz_SyH8n0p4nSWYo8K-262" edge="1">
          <mxGeometry width="50" height="50" relative="1" as="geometry">
            <mxPoint x="1180" y="689.28" as="sourcePoint" />
            <mxPoint x="1230" y="639.28" as="targetPoint" />
          </mxGeometry>
        </mxCell>
        <mxCell id="yh-87h6LT-zxQJzMNpkT-37" style="edgeStyle=orthogonalEdgeStyle;rounded=0;orthogonalLoop=1;jettySize=auto;html=1;exitX=1;exitY=0.5;exitDx=0;exitDy=0;entryX=1;entryY=0.5;entryDx=0;entryDy=0;" edge="1" parent="1" source="yh-87h6LT-zxQJzMNpkT-4" target="yh-87h6LT-zxQJzMNpkT-34">
          <mxGeometry relative="1" as="geometry" />
        </mxCell>
        <mxCell id="yh-87h6LT-zxQJzMNpkT-4" value="Differential Loss&lt;br&gt;&lt;div&gt;&lt;br&gt;&lt;/div&gt;&lt;div&gt;\( L_D = \left\| u_t(t_n) - \nabla \cdot \left[ \tilde{\kappa}(t_n) \nabla u(t_n) \right] - \tilde{v}(t_n) \cdot \nabla u(t_n) - \tilde{f}(t_n) \right\|_\Gamma \)&lt;/div&gt;" style="text;html=1;align=center;verticalAlign=middle;whiteSpace=wrap;rounded=0;" vertex="1" parent="1">
          <mxGeometry x="1119" y="572.5000000000001" width="400" height="80" as="geometry" />
        </mxCell>
        <mxCell id="yh-87h6LT-zxQJzMNpkT-36" style="edgeStyle=orthogonalEdgeStyle;rounded=0;orthogonalLoop=1;jettySize=auto;html=1;exitX=1;exitY=0.5;exitDx=0;exitDy=0;entryX=1;entryY=0.5;entryDx=0;entryDy=0;" edge="1" parent="1" source="yh-87h6LT-zxQJzMNpkT-8" target="yh-87h6LT-zxQJzMNpkT-34">
          <mxGeometry relative="1" as="geometry" />
        </mxCell>
        <mxCell id="yh-87h6LT-zxQJzMNpkT-8" value="Solution Loss&lt;div&gt;&lt;br&gt;&lt;/div&gt;&lt;div&gt;\( L_u = \left\| u(t_{n+1}) - \tilde{u}(t_{n+1}) \right\|_\Gamma \)&lt;/div&gt;" style="text;html=1;align=center;verticalAlign=middle;whiteSpace=wrap;rounded=0;" vertex="1" parent="1">
          <mxGeometry x="1210" y="453.75" width="210" height="70" as="geometry" />
        </mxCell>
        <mxCell id="yh-87h6LT-zxQJzMNpkT-10" value="`\tilde{\kappa}(t_n)`" style="text;html=1;align=center;verticalAlign=middle;whiteSpace=wrap;rounded=0;" vertex="1" parent="1">
          <mxGeometry x="680" y="480" width="50" height="30" as="geometry" />
        </mxCell>
        <mxCell id="yh-87h6LT-zxQJzMNpkT-12" value="`\tilde{f}(t_n)`" style="text;html=1;align=center;verticalAlign=middle;whiteSpace=wrap;rounded=0;" vertex="1" parent="1">
          <mxGeometry x="680" y="560" width="50" height="30" as="geometry" />
        </mxCell>
        <mxCell id="yh-87h6LT-zxQJzMNpkT-13" value="Derivative Factory" style="rounded=1;whiteSpace=wrap;html=1;" vertex="1" parent="1">
          <mxGeometry x="850" y="580" width="180" height="105" as="geometry" />
        </mxCell>
        <mxCell id="yh-87h6LT-zxQJzMNpkT-15" value="" style="endArrow=classic;html=1;rounded=0;exitX=1;exitY=0.5;exitDx=0;exitDy=0;entryX=0;entryY=0.5;entryDx=0;entryDy=0;" edge="1" parent="1" source="yh-87h6LT-zxQJzMNpkT-10" target="yh-87h6LT-zxQJzMNpkT-13">
          <mxGeometry width="50" height="50" relative="1" as="geometry">
            <mxPoint x="720" y="480" as="sourcePoint" />
            <mxPoint x="770" y="430" as="targetPoint" />
          </mxGeometry>
        </mxCell>
        <mxCell id="yh-87h6LT-zxQJzMNpkT-16" value="" style="endArrow=classic;html=1;rounded=0;exitX=1;exitY=0.5;exitDx=0;exitDy=0;entryX=0;entryY=0.5;entryDx=0;entryDy=0;" edge="1" parent="1" source="L2Xz_SyH8n0p4nSWYo8K-241" target="yh-87h6LT-zxQJzMNpkT-4">
          <mxGeometry width="50" height="50" relative="1" as="geometry">
            <mxPoint x="740" y="615" as="sourcePoint" />
            <mxPoint x="900" y="498" as="targetPoint" />
            <Array as="points">
              <mxPoint x="850" y="560" />
              <mxPoint x="1040" y="560" />
            </Array>
          </mxGeometry>
        </mxCell>
        <mxCell id="yh-87h6LT-zxQJzMNpkT-18" value="`u(t_n)`" style="text;html=1;align=center;verticalAlign=middle;whiteSpace=wrap;rounded=0;" vertex="1" parent="1">
          <mxGeometry x="260" y="471.25" width="70" height="50" as="geometry" />
        </mxCell>
        <mxCell id="yh-87h6LT-zxQJzMNpkT-21" value="" style="endArrow=classic;html=1;rounded=0;exitX=1;exitY=0.5;exitDx=0;exitDy=0;entryX=0;entryY=0.5;entryDx=0;entryDy=0;" edge="1" parent="1" source="yh-87h6LT-zxQJzMNpkT-18" target="L2Xz_SyH8n0p4nSWYo8K-233">
          <mxGeometry width="50" height="50" relative="1" as="geometry">
            <mxPoint x="420" y="690" as="sourcePoint" />
            <mxPoint x="470" y="640" as="targetPoint" />
          </mxGeometry>
        </mxCell>
        <mxCell id="yh-87h6LT-zxQJzMNpkT-24" value="`u(t_{n+1})`" style="text;html=1;align=center;verticalAlign=middle;whiteSpace=wrap;rounded=0;" vertex="1" parent="1">
          <mxGeometry x="1082" y="452.5" width="56" height="40" as="geometry" />
        </mxCell>
        <mxCell id="yh-87h6LT-zxQJzMNpkT-25" value="" style="endArrow=classic;html=1;rounded=0;exitX=1;exitY=0.5;exitDx=0;exitDy=0;entryX=0;entryY=0.5;entryDx=0;entryDy=0;" edge="1" parent="1" source="L2Xz_SyH8n0p4nSWYo8K-262" target="yh-87h6LT-zxQJzMNpkT-8">
          <mxGeometry width="50" height="50" relative="1" as="geometry">
            <mxPoint x="1234" y="712" as="sourcePoint" />
            <mxPoint x="1284" y="662" as="targetPoint" />
          </mxGeometry>
        </mxCell>
        <mxCell id="yh-87h6LT-zxQJzMNpkT-26" value="" style="endArrow=classic;html=1;rounded=0;exitX=1;exitY=0.5;exitDx=0;exitDy=0;entryX=0;entryY=0.5;entryDx=0;entryDy=0;" edge="1" parent="1" source="yh-87h6LT-zxQJzMNpkT-24" target="yh-87h6LT-zxQJzMNpkT-8">
          <mxGeometry width="50" height="50" relative="1" as="geometry">
            <mxPoint x="1264" y="702" as="sourcePoint" />
            <mxPoint x="1314" y="652" as="targetPoint" />
          </mxGeometry>
        </mxCell>
        <mxCell id="yh-87h6LT-zxQJzMNpkT-28" value="" style="endArrow=classic;html=1;rounded=0;exitX=1;exitY=0.5;exitDx=0;exitDy=0;entryX=0;entryY=0.5;entryDx=0;entryDy=0;" edge="1" parent="1" source="yh-87h6LT-zxQJzMNpkT-13" target="yh-87h6LT-zxQJzMNpkT-4">
          <mxGeometry width="50" height="50" relative="1" as="geometry">
            <mxPoint x="1100" y="930" as="sourcePoint" />
            <mxPoint x="1150" y="880" as="targetPoint" />
          </mxGeometry>
        </mxCell>
        <mxCell id="yh-87h6LT-zxQJzMNpkT-30" value="" style="endArrow=classic;html=1;rounded=0;exitX=1;exitY=0.5;exitDx=0;exitDy=0;entryX=0;entryY=0.5;entryDx=0;entryDy=0;" edge="1" parent="1" source="yh-87h6LT-zxQJzMNpkT-18" target="yh-87h6LT-zxQJzMNpkT-13">
          <mxGeometry width="50" height="50" relative="1" as="geometry">
            <mxPoint x="380" y="640" as="sourcePoint" />
            <mxPoint x="430" y="590" as="targetPoint" />
            <Array as="points">
              <mxPoint x="460" y="630" />
            </Array>
          </mxGeometry>
        </mxCell>
        <mxCell id="yh-87h6LT-zxQJzMNpkT-32" value="" style="endArrow=classic;html=1;rounded=0;exitX=1;exitY=0.5;exitDx=0;exitDy=0;entryX=0;entryY=0.5;entryDx=0;entryDy=0;" edge="1" parent="1" source="yh-87h6LT-zxQJzMNpkT-12" target="yh-87h6LT-zxQJzMNpkT-4">
          <mxGeometry width="50" height="50" relative="1" as="geometry">
            <mxPoint x="890" y="860" as="sourcePoint" />
            <mxPoint x="940" y="810" as="targetPoint" />
            <Array as="points">
              <mxPoint x="850" y="570" />
              <mxPoint x="1040" y="570" />
            </Array>
          </mxGeometry>
        </mxCell>
        <mxCell id="yh-87h6LT-zxQJzMNpkT-34" value="Loss&lt;div&gt;$$ L = L_u + L_D $$&lt;/div&gt;" style="text;html=1;align=center;verticalAlign=middle;whiteSpace=wrap;rounded=0;" vertex="1" parent="1">
          <mxGeometry x="1259" y="350" width="120" height="80" as="geometry" />
        </mxCell>
        <mxCell id="yh-87h6LT-zxQJzMNpkT-35" value="" style="endArrow=classic;html=1;rounded=0;exitX=0;exitY=0.5;exitDx=0;exitDy=0;entryX=1;entryY=0.25;entryDx=0;entryDy=0;" edge="1" parent="1" source="yh-87h6LT-zxQJzMNpkT-34" target="L2Xz_SyH8n0p4nSWYo8K-233">
          <mxGeometry width="50" height="50" relative="1" as="geometry">
            <mxPoint x="1050" y="370" as="sourcePoint" />
            <mxPoint x="1100" y="320" as="targetPoint" />
            <Array as="points">
              <mxPoint x="660" y="390" />
            </Array>
          </mxGeometry>
        </mxCell>
        <mxCell id="yh-87h6LT-zxQJzMNpkT-38" value="$$ u(t_{n-1}) $$&lt;div&gt;$$ u(t_{n-2}) $$&lt;/div&gt;&lt;div&gt;$$ \dots $$&lt;/div&gt;" style="text;html=1;align=center;verticalAlign=middle;whiteSpace=wrap;rounded=0;" vertex="1" parent="1">
          <mxGeometry x="250" y="340" width="80" height="90" as="geometry" />
        </mxCell>
        <mxCell id="yh-87h6LT-zxQJzMNpkT-40" value="" style="endArrow=classic;html=1;rounded=0;exitX=1;exitY=0.5;exitDx=0;exitDy=0;entryX=0;entryY=0.5;entryDx=0;entryDy=0;" edge="1" parent="1" source="yh-87h6LT-zxQJzMNpkT-38" target="L2Xz_SyH8n0p4nSWYo8K-256">
          <mxGeometry width="50" height="50" relative="1" as="geometry">
            <mxPoint x="360" y="330" as="sourcePoint" />
            <mxPoint x="410" y="280" as="targetPoint" />
            <Array as="points">
              <mxPoint x="610" y="385" />
            </Array>
          </mxGeometry>
        </mxCell>
        <mxCell id="yh-87h6LT-zxQJzMNpkT-44" value="" style="endArrow=classic;html=1;rounded=0;exitX=1;exitY=0.5;exitDx=0;exitDy=0;entryX=0;entryY=0.5;entryDx=0;entryDy=0;" edge="1" parent="1" source="yh-87h6LT-zxQJzMNpkT-45" target="L2Xz_SyH8n0p4nSWYo8K-256">
          <mxGeometry width="50" height="50" relative="1" as="geometry">
            <mxPoint x="570" y="330" as="sourcePoint" />
            <mxPoint x="770" y="200" as="targetPoint" />
            <Array as="points">
              <mxPoint x="610" y="330" />
            </Array>
          </mxGeometry>
        </mxCell>
        <mxCell id="yh-87h6LT-zxQJzMNpkT-45" value="&lt;div&gt;`\tilde{\kappa}(t_{n-1})`, `\tilde{v}(t_{n-1})`, `\tilde{f}(t_{n-1})`&lt;/div&gt;&lt;div&gt;&lt;br&gt;&lt;/div&gt;&lt;div&gt;`\tilde{\kappa}(t_{n-2})`, `\tilde{v}(t_{n-2})`, `\tilde{f}(t_{n-2})`&lt;/div&gt;&lt;div&gt;&lt;br&gt;&lt;/div&gt;&lt;div&gt;\(\dots\)&lt;/div&gt;" style="text;html=1;align=center;verticalAlign=middle;whiteSpace=wrap;rounded=0;" vertex="1" parent="1">
          <mxGeometry x="390" y="280" width="180" height="100" as="geometry" />
        </mxCell>
        <mxCell id="yh-87h6LT-zxQJzMNpkT-46" value="" style="endArrow=classic;html=1;rounded=0;exitX=1;exitY=0.5;exitDx=0;exitDy=0;entryX=0;entryY=0.5;entryDx=0;entryDy=0;" edge="1" parent="1" source="yh-87h6LT-zxQJzMNpkT-18" target="L2Xz_SyH8n0p4nSWYo8K-256">
          <mxGeometry width="50" height="50" relative="1" as="geometry">
            <mxPoint x="360" y="720" as="sourcePoint" />
            <mxPoint x="410" y="670" as="targetPoint" />
            <Array as="points">
              <mxPoint x="400" y="430" />
              <mxPoint x="610" y="430" />
            </Array>
          </mxGeometry>
        </mxCell>
        <mxCell id="yh-87h6LT-zxQJzMNpkT-47" value="" style="endArrow=classic;html=1;rounded=0;exitX=1;exitY=0.5;exitDx=0;exitDy=0;entryX=0;entryY=0.5;entryDx=0;entryDy=0;" edge="1" parent="1" source="yh-87h6LT-zxQJzMNpkT-38" target="L2Xz_SyH8n0p4nSWYo8K-233">
          <mxGeometry width="50" height="50" relative="1" as="geometry">
            <mxPoint x="240" y="430" as="sourcePoint" />
            <mxPoint x="290" y="380" as="targetPoint" />
          </mxGeometry>
        </mxCell>
      </root>
    </mxGraphModel>
  </diagram>
</mxfile>
